<svg xmlns="http://www.w3.org/2000/svg" viewBox="0 0 24 24" fill="none" stroke="currentColor" stroke-width="2.8" stroke-linecap="round" stroke-linejoin="round" aria-hidden="true">
  <g vector-effect="non-scaling-stroke">
    <rect x="8" y="2" width="8" height="4" rx="1" />
    <path d="M9 4h6" />
    <path d="M8 6H6a2 2 0 0 0-2 2v12a2 2 0 0 0 2 2h12a2 2 0 0 0 2-2V8a2 2 0 0 0-2-2h-2" />
    <path d="M8 11h.01" />
    <path d="M8 15h.01" />
    <path d="M8 19h.01" />
    <line x1="11" y1="11" x2="16" y2="11" />
    <line x1="11" y1="15" x2="16" y2="15" />
    <line x1="11" y1="19" x2="16" y2="19" />
  </g>
</svg>
